HIERARCHY
ROOT Hips
{
	OFFSET 0.000000 87.230942 0.000000
	CHANNELS 6 Xposition Yposition Zposition Xrotation Yrotation Zrotation
	JOINT Pelvis
	{
		OFFSET 0.000000 0.000000 0.000000
		CHANNELS 3 Xrotation Yrotation Zrotation
		JOINT LeftUpLeg
		{
			OFFSET 12.017000 -9.376404 -2.439400
			CHANNELS 3 Xrotation Yrotation Zrotation
			JOINT LeftLeg
			{
				OFFSET -0.007312 -32.846973 2.110600
				CHANNELS 3 Xrotation Yrotation Zrotation
				JOINT LeftFoot
				{
					OFFSET 0.007312 -32.065170 -0.570400
					CHANNELS 3 Xrotation Yrotation Zrotation
					JOINT LeftToeBase
					{
						OFFSET 0.728300 -11.045900 13.180700
						CHANNELS 3 Xrotation Yrotation Zrotation
						End Site
						{
							OFFSET 0.000000 17.212589 0.000000
						}
					}
				}
				JOINT LeftPantLeg
				{
					OFFSET 0.002788 -16.709013 -3.143600
					CHANNELS 3 Xrotation Yrotation Zrotation
					End Site
					{
						OFFSET -0.605125 24.528742 0.000000
					}
				}
			}
			JOINT Left_Butt
			{
				OFFSET -6.630234 1.326584 -3.183700
				CHANNELS 3 Xrotation Yrotation Zrotation
				End Site
				{
					OFFSET -0.498041 20.188049 0.000000
				}
			}
		}
		JOINT RightUpLeg
		{
			OFFSET -11.717000 -9.376404 -2.439400
			CHANNELS 3 Xrotation Yrotation Zrotation
			JOINT RightLeg
			{
				OFFSET -0.003241 -32.846912 2.110600
				CHANNELS 3 Xrotation Yrotation Zrotation
				JOINT RightFoot
				{
					OFFSET 0.003241 -32.065136 -0.570500
					CHANNELS 3 Xrotation Yrotation Zrotation
					JOINT RightToeBase
					{
						OFFSET -0.728300 -11.045901 13.180700
						CHANNELS 3 Xrotation Yrotation Zrotation
						End Site
						{
							OFFSET 0.000000 17.212593 0.000000
						}
					}
				}
				JOINT RightPantLeg
				{
					OFFSET 0.008142 -16.708982 -3.143700
					CHANNELS 3 Xrotation Yrotation Zrotation
					End Site
					{
						OFFSET 0.605088 24.528715 0.000000
					}
				}
			}
			JOINT Right_Butt
			{
				OFFSET 6.630732 1.326584 -3.183700
				CHANNELS 3 Xrotation Yrotation Zrotation
				End Site
				{
					OFFSET 0.498015 20.188240 0.000000
				}
			}
		}
	}
	JOINT Spine
	{
		OFFSET -0.062400 7.848404 3.918300
		CHANNELS 3 Xrotation Yrotation Zrotation
		JOINT Spine1
		{
			OFFSET -0.072800 11.422302 0.713400
			CHANNELS 3 Xrotation Yrotation Zrotation
			JOINT Spine2
			{
				OFFSET -0.083200 13.054001 -1.931600
				CHANNELS 3 Xrotation Yrotation Zrotation
				JOINT Neck
				{
					OFFSET -0.092200 14.121796 -5.138800
					CHANNELS 3 Xrotation Yrotation Zrotation
					JOINT Head
					{
						OFFSET 0.000200 10.447403 -0.842000
						CHANNELS 3 Xrotation Yrotation Zrotation
						JOINT Visor
						{
							OFFSET 0.457100 25.671204 16.550400
							CHANNELS 3 Xrotation Yrotation Zrotation
							End Site
							{
								OFFSET 0.000000 26.061493 0.000000
							}
						}
						JOINT HairMidA
						{
							OFFSET 0.459400 31.585403 8.437400
							CHANNELS 3 Xrotation Yrotation Zrotation
							End Site
							{
								OFFSET 0.000000 26.061493 0.000000
							}
						}
						JOINT HairMidB
						{
							OFFSET 0.464000 33.309204 -8.389700
							CHANNELS 3 Xrotation Yrotation Zrotation
							End Site
							{
								OFFSET 0.000000 26.061493 0.000000
							}
						}
						JOINT HairMidC
						{
							OFFSET 0.466600 27.991196 -17.375099
							CHANNELS 3 Xrotation Yrotation Zrotation
							End Site
							{
								OFFSET 0.000000 26.061493 0.000000
							}
						}
						JOINT HairMidD
						{
							OFFSET 0.467700 17.888092 -21.169500
							CHANNELS 3 Xrotation Yrotation Zrotation
							End Site
							{
								OFFSET 0.000000 26.061493 0.000000
							}
						}
						JOINT HairMidE
						{
							OFFSET 5.325700 3.514603 -14.369699
							CHANNELS 3 Xrotation Yrotation Zrotation
							End Site
							{
								OFFSET 0.000000 26.061493 0.000000
							}
						}
						JOINT HairMidF
						{
							OFFSET -4.394100 3.514603 -14.372400
							CHANNELS 3 Xrotation Yrotation Zrotation
							End Site
							{
								OFFSET 0.000000 26.061493 0.000000
							}
						}
						JOINT HairLeftA
						{
							OFFSET 15.319900 25.746506 2.623300
							CHANNELS 3 Xrotation Yrotation Zrotation
							End Site
							{
								OFFSET 0.000000 26.061493 0.000000
							}
						}
						JOINT HairLeftB
						{
							OFFSET 12.619500 29.289398 -8.731499
							CHANNELS 3 Xrotation Yrotation Zrotation
							End Site
							{
								OFFSET 0.000000 26.061493 0.000000
							}
						}
						JOINT HairLeftC
						{
							OFFSET 15.714800 15.959900 2.909800
							CHANNELS 3 Xrotation Yrotation Zrotation
							End Site
							{
								OFFSET 0.000000 26.061493 0.000000
							}
						}
						JOINT HairLeftD
						{
							OFFSET 16.101700 18.437408 -7.553200
							CHANNELS 3 Xrotation Yrotation Zrotation
							End Site
							{
								OFFSET 0.000000 26.061493 0.000000
							}
						}
						JOINT HairLeftE
						{
							OFFSET 9.731900 17.915009 -18.316799
							CHANNELS 3 Xrotation Yrotation Zrotation
							End Site
							{
								OFFSET 0.000000 26.061493 0.000000
							}
						}
						JOINT HairLeftF
						{
							OFFSET 11.204300 4.953598 -9.668100
							CHANNELS 3 Xrotation Yrotation Zrotation
							End Site
							{
								OFFSET 0.000000 26.061493 0.000000
							}
						}
						JOINT HairRightA
						{
							OFFSET -14.397900 25.746307 2.615100
							CHANNELS 3 Xrotation Yrotation Zrotation
							End Site
							{
								OFFSET 0.000000 26.061493 0.000000
							}
						}
						JOINT HairRightB
						{
							OFFSET -11.691200 29.289200 -8.738199
							CHANNELS 3 Xrotation Yrotation Zrotation
							End Site
							{
								OFFSET 0.000000 26.061493 0.000000
							}
						}
						JOINT HairRightC
						{
							OFFSET -14.792900 15.959702 2.901400
							CHANNELS 3 Xrotation Yrotation Zrotation
							End Site
							{
								OFFSET 0.000000 26.061493 0.000000
							}
						}
						JOINT HairRightD
						{
							OFFSET -15.174000 18.437195 -7.561900
							CHANNELS 3 Xrotation Yrotation Zrotation
							End Site
							{
								OFFSET 0.000000 26.061493 0.000000
							}
						}
						JOINT HairRightE
						{
							OFFSET -8.798200 17.914902 -18.322001
							CHANNELS 3 Xrotation Yrotation Zrotation
							End Site
							{
								OFFSET 0.000000 26.061493 0.000000
							}
						}
						JOINT HairRightF
						{
							OFFSET -10.275200 4.953506 -9.674099
							CHANNELS 3 Xrotation Yrotation Zrotation
							End Site
							{
								OFFSET 0.000000 26.061493 0.000000
							}
						}
					}
				}
				JOINT LeftShoulder
				{
					OFFSET 5.133500 7.341202 -1.867600
					CHANNELS 3 Xrotation Yrotation Zrotation
					JOINT LeftArm
					{
						OFFSET 8.072663 0.936867 -2.176600
						CHANNELS 3 Xrotation Yrotation Zrotation
						JOINT LeftForeArm
						{
							OFFSET 31.271999 0.000000 0.000000
							CHANNELS 3 Xrotation Yrotation Zrotation
							JOINT LeftHand
							{
								OFFSET 31.771030 0.000000 0.000000
								CHANNELS 3 Xrotation Yrotation Zrotation
								JOINT LeftHandThumb1
								{
									OFFSET 2.886520 -2.557846 4.416640
									CHANNELS 3 Xrotation Yrotation Zrotation
									JOINT LeftHandThumb2
									{
										OFFSET 2.371025 -1.368912 1.368911
										CHANNELS 3 Xrotation Yrotation Zrotation
										JOINT LeftHandThumb3
										{
											OFFSET 2.243378 -1.295212 1.295213
											CHANNELS 3 Xrotation Yrotation Zrotation
											End Site
											{
												OFFSET -0.332611 2.876945 0.020015
											}
										}
									}
								}
								JOINT LeftHandIndex1
								{
									OFFSET 8.568985 -0.641945 3.119977
									CHANNELS 3 Xrotation Yrotation Zrotation
									JOINT LeftHandIndex2
									{
										OFFSET 3.348503 0.000000 0.000000
										CHANNELS 3 Xrotation Yrotation Zrotation
										JOINT LeftHandIndex3
										{
											OFFSET 3.314552 0.000000 0.000000
											CHANNELS 3 Xrotation Yrotation Zrotation
											End Site
											{
												OFFSET -1.032898 3.075485 0.678796
											}
										}
									}
								}
								JOINT LeftHandMiddle1
								{
									OFFSET 8.124603 0.000000 0.000000
									CHANNELS 3 Xrotation Yrotation Zrotation
									JOINT LeftHandMiddle2
									{
										OFFSET 4.166275 0.000000 0.000000
										CHANNELS 3 Xrotation Yrotation Zrotation
										JOINT LeftHandMiddle3
										{
											OFFSET 3.018135 0.000000 0.000000
											CHANNELS 3 Xrotation Yrotation Zrotation
											End Site
											{
												OFFSET -1.032700 2.767982 0.617226
											}
										}
									}
								}
								JOINT LeftHandRing1
								{
									OFFSET 8.571686 -0.031357 -2.884048
									CHANNELS 3 Xrotation Yrotation Zrotation
									JOINT LeftHandRing2
									{
										OFFSET 3.671181 0.000000 0.000000
										CHANNELS 3 Xrotation Yrotation Zrotation
										JOINT LeftHandRing3
										{
											OFFSET 2.728851 0.000000 0.000000
											CHANNELS 3 Xrotation Yrotation Zrotation
											End Site
											{
												OFFSET -0.815796 2.539223 0.577389
											}
										}
									}
								}
								JOINT LeftHandPinky1
								{
									OFFSET 7.854515 -0.675232 -5.213020
									CHANNELS 3 Xrotation Yrotation Zrotation
									JOINT LeftHandPinky2
									{
										OFFSET 3.068596 0.000000 0.000000
										CHANNELS 3 Xrotation Yrotation Zrotation
										JOINT LeftHandPinky3
										{
											OFFSET 2.396042 0.000000 0.000000
											CHANNELS 3 Xrotation Yrotation Zrotation
											End Site
											{
												OFFSET -0.524597 2.267998 0.567429
											}
										}
									}
								}
							}
							JOINT LeftSleeve
							{
								OFFSET 19.684509 -0.200119 0.476146
								CHANNELS 3 Xrotation Yrotation Zrotation
								End Site
								{
									OFFSET -0.031017 25.731133 -0.002868
								}
							}
						}
					}
				}
				JOINT RightShoulder
				{
					OFFSET -4.395900 7.341202 -1.870200
					CHANNELS 3 Xrotation Yrotation Zrotation
					JOINT RightArm
					{
						OFFSET -8.071453 0.936867 -2.181100
						CHANNELS 3 Xrotation Yrotation Zrotation
						JOINT RightForeArm
						{
							OFFSET -31.272011 0.000000 0.000000
							CHANNELS 3 Xrotation Yrotation Zrotation
							JOINT RightHand
							{
								OFFSET -31.771019 0.000000 0.000000
								CHANNELS 3 Xrotation Yrotation Zrotation
								JOINT RightHandThumb1
								{
									OFFSET -2.886520 -2.557808 4.416626
									CHANNELS 3 Xrotation Yrotation Zrotation
									JOINT RightHandThumb2
									{
										OFFSET -2.371056 -1.368927 1.368928
										CHANNELS 3 Xrotation Yrotation Zrotation
										JOINT RightHandThumb3
										{
											OFFSET -2.243362 -1.295204 1.295206
											CHANNELS 3 Xrotation Yrotation Zrotation
											End Site
											{
												OFFSET 0.332642 2.876938 0.020047
											}
										}
									}
								}
								JOINT RightHandIndex1
								{
									OFFSET -8.568993 -0.641953 3.120017
									CHANNELS 3 Xrotation Yrotation Zrotation
									JOINT RightHandIndex2
									{
										OFFSET -3.348518 0.000000 0.000000
										CHANNELS 3 Xrotation Yrotation Zrotation
										JOINT RightHandIndex3
										{
											OFFSET -3.314552 0.000000 0.000000
											CHANNELS 3 Xrotation Yrotation Zrotation
											End Site
											{
												OFFSET 1.032898 3.075478 0.678804
											}
										}
									}
								}
								JOINT RightHandMiddle1
								{
									OFFSET -8.124588 0.000000 0.000000
									CHANNELS 3 Xrotation Yrotation Zrotation
									JOINT RightHandMiddle2
									{
										OFFSET -4.166275 0.000000 0.000000
										CHANNELS 3 Xrotation Yrotation Zrotation
										JOINT RightHandMiddle3
										{
											OFFSET -3.018097 0.000000 0.000000
											CHANNELS 3 Xrotation Yrotation Zrotation
											End Site
											{
												OFFSET 1.032700 2.767937 0.617197
											}
										}
									}
								}
								JOINT RightHandRing1
								{
									OFFSET -8.571747 -0.031349 -2.884061
									CHANNELS 3 Xrotation Yrotation Zrotation
									JOINT RightHandRing2
									{
										OFFSET -3.671204 0.000000 0.000000
										CHANNELS 3 Xrotation Yrotation Zrotation
										JOINT RightHandRing3
										{
											OFFSET -2.728874 0.000000 0.000000
											CHANNELS 3 Xrotation Yrotation Zrotation
											End Site
											{
												OFFSET 0.815804 2.539261 0.577413
											}
										}
									}
								}
								JOINT RightHandPinky1
								{
									OFFSET -7.854561 -0.675247 -5.212970
									CHANNELS 3 Xrotation Yrotation Zrotation
									JOINT RightHandPinky2
									{
										OFFSET -3.068550 0.000000 0.000000
										CHANNELS 3 Xrotation Yrotation Zrotation
										JOINT RightHandPinky3
										{
											OFFSET -2.395981 0.000000 0.000000
											CHANNELS 3 Xrotation Yrotation Zrotation
											End Site
											{
												OFFSET 0.524605 2.267952 0.567413
											}
										}
									}
								}
							}
							JOINT RightSleeve
							{
								OFFSET -19.684753 -0.200165 0.476065
								CHANNELS 3 Xrotation Yrotation Zrotation
								End Site
								{
									OFFSET 0.031342 25.731255 -0.002917
								}
							}
						}
					}
				}
				JOINT Hood
				{
					OFFSET 0.369700 14.447800 -5.317800
					CHANNELS 3 Xrotation Yrotation Zrotation
					JOINT Hood1
					{
						OFFSET 0.001700 -5.553802 -5.895100
						CHANNELS 3 Xrotation Yrotation Zrotation
						JOINT Hood2
						{
							OFFSET -0.000200 -8.380501 0.763600
							CHANNELS 3 Xrotation Yrotation Zrotation
							End Site
							{
								OFFSET 0.000000 8.415215 0.000000
							}
						}
					}
				}
				JOINT Left_Breast
				{
					OFFSET 5.682500 3.120102 3.188800
					CHANNELS 3 Xrotation Yrotation Zrotation
					End Site
					{
						OFFSET 0.000000 10.528564 0.000000
					}
				}
				JOINT Right_Breast
				{
					OFFSET -4.947600 3.120102 3.185900
					CHANNELS 3 Xrotation Yrotation Zrotation
					End Site
					{
						OFFSET 0.000000 10.528564 0.000000
					}
				}
				JOINT Whistle
				{
					OFFSET 0.368200 11.471298 0.095400
					CHANNELS 3 Xrotation Yrotation Zrotation
					JOINT Whistle1
					{
						OFFSET -0.002000 -6.349899 7.479800
						CHANNELS 3 Xrotation Yrotation Zrotation
						JOINT Whistle2
						{
							OFFSET -0.001300 -8.217598 4.717600
							CHANNELS 3 Xrotation Yrotation Zrotation
							End Site
							{
								OFFSET 0.000000 9.475479 0.000000
							}
						}
					}
				}
			}
		}
		JOINT Belly
		{
			OFFSET 0.212400 1.593002 3.163700
			CHANNELS 3 Xrotation Yrotation Zrotation
			End Site
			{
				OFFSET 0.000000 7.496635 0.000000
			}
		}
	}
	JOINT FitGrandmaFacialAnim_Joint
	{
		OFFSET 1.150000 -86.211197 -1.220100
		CHANNELS 3 Xrotation Yrotation Zrotation
		End Site
		{
			OFFSET 0.000000 31.666618 0.000000
		}
	}
}
MOTION
Frames: 4
Frame Time: 0.016667
-0.760038 110.635117 4.220564 4.573197 -38.791404 4.522088 -0.000000 -0.000001 0.000000 -73.834283 -15.652287 32.389027 66.209101 1.484155 7.597737 1.014014 -0.055689 0.236312 0.000001 0.000000 -0.000004 0.000002 -0.000001 0.000003 0.000000 0.000002 -0.000000 -112.077667 -42.621384 -0.013659 124.093431 20.369258 -13.358977 8.701370 -1.259354 23.121642 0.000000 -0.000000 -0.000003 -0.000001 0.000000 0.000003 -0.000001 -0.000000 0.000002 30.123972 -3.600197 -10.149285 12.785633 1.087587 -3.033127 12.733215 1.050408 -3.241308 -8.164126 20.999273 -13.038091 -23.845985 13.475284 4.639315 0.000001 0.000001 0.000000 0.000001 0.000001 0.000000 0.000001 0.000001 0.000000 0.000001 0.000001 0.000000 0.000001 0.000001 0.000000 0.000001 0.000001 0.000000 0.000001 0.000001 0.000000 0.000001 0.000001 0.000000 0.000001 0.000001 0.000000 0.000001 0.000001 0.000000 0.000001 0.000001 0.000000 0.000001 0.000001 0.000000 0.000001 0.000001 0.000000 0.000001 0.000001 0.000000 0.000001 0.000001 0.000000 0.000001 0.000001 0.000000 0.000001 0.000001 0.000000 0.000001 0.000001 0.000000 0.000001 0.000001 0.000000 9.829643 -9.813819 -1.458549 -62.537724 12.081214 3.106144 46.615570 -25.819867 31.530107 -9.264709 7.312774 9.666257 40.109944 -15.297146 -0.360402 5.639820 28.097621 11.338678 -0.000001 -0.000000 0.000001 6.882243 2.840032 -61.140418 8.247909 7.639956 -89.897966 0.000005 0.000001 0.000001 -2.345503 4.688823 -62.655333 8.754114 9.897082 -87.051096 -0.000004 -0.000000 -0.000003 -9.042522 10.045658 -60.766315 8.524102 9.508841 -66.893090 0.000005 0.000000 0.000000 -17.946959 14.754920 -51.485809 8.868394 8.667021 -84.811975 -0.000001 0.000000 -0.000001 -0.000001 -0.000002 0.000002 14.990515 20.897807 -4.160217 -28.001557 -11.258124 -3.541425 -45.194552 43.244014 34.197712 -6.582782 -10.157730 -10.545301 -1.525703 -5.490528 13.054247 1.517211 -22.702499 -8.022600 0.000001 0.000001 0.000000 1.268146 4.823970 -8.200812 0.525034 1.162827 0.172177 -0.000002 -0.000002 0.000003 0.868468 -5.217185 -11.333470 1.480005 -3.605084 20.026707 -0.000001 0.000001 -0.000001 1.814730 -11.814411 -9.180225 1.792565 -3.024106 21.110269 0.000001 0.000000 0.000001 2.626214 -21.407343 -3.836557 5.351744 -1.276948 0.651247 -0.000003 0.000002 0.000001 0.000001 0.000001 0.000001 0.000004 -0.000001 -0.000000 0.000004 -0.000001 -0.000000 0.000004 -0.000001 -0.000000 0.000004 -0.000001 -0.000000 0.000004 -0.000001 -0.000000 0.000004 -0.000001 -0.000000 0.000003 0.000002 0.000000 0.000003 0.000002 0.000000 0.000002 -0.000002 0.000001 -0.000000 -0.000001 0.000000 
-0.743917 110.646896 4.228516 4.504337 -38.524948 4.431348 -0.000000 0.000001 0.000000 -74.043055 -15.451080 32.029612 66.246701 3.143514 8.383520 1.085105 -0.825005 1.422051 0.000001 -0.000000 -0.000001 0.000001 -0.000000 -0.000001 0.000000 0.000003 -0.000000 -112.336258 -42.487578 0.013821 124.124208 20.364472 -13.364240 9.691231 -1.278605 23.787838 0.000000 -0.000000 -0.000002 -0.000000 -0.000000 0.000003 0.000002 -0.000000 0.000000 30.123586 -3.663902 -10.152645 12.788134 1.087595 -3.033140 12.735773 1.050414 -3.241316 -8.920862 20.968727 -13.048920 -25.340135 14.061504 5.597396 -0.000001 0.000000 -0.000000 -0.000001 0.000000 -0.000000 -0.000001 0.000000 -0.000000 -0.000001 0.000000 -0.000000 -0.000001 0.000000 -0.000000 -0.000001 0.000000 -0.000000 -0.000001 0.000000 -0.000000 -0.000001 0.000000 -0.000000 -0.000001 0.000000 -0.000000 -0.000001 0.000000 -0.000000 -0.000001 0.000000 -0.000000 -0.000001 0.000000 -0.000000 -0.000001 0.000000 -0.000000 -0.000001 0.000000 -0.000000 -0.000001 0.000000 -0.000000 -0.000001 0.000000 -0.000000 -0.000001 0.000000 -0.000000 -0.000001 0.000000 -0.000000 -0.000001 0.000000 -0.000000 9.984070 -9.728893 -0.757571 -62.955807 11.135349 3.775612 46.589233 -25.768456 31.469595 -9.041967 6.729845 9.359716 40.109944 -15.297141 -0.360402 5.639819 28.097619 11.338679 0.000001 0.000001 -0.000000 6.882246 2.840033 -61.140425 8.247906 7.639958 -89.897966 0.000004 -0.000000 -0.000001 -2.345501 4.688819 -62.655333 8.754111 9.897085 -87.051096 -0.000000 0.000000 0.000001 -9.042515 10.045656 -60.766315 8.524103 9.508843 -66.893097 0.000003 0.000000 -0.000001 -17.946957 14.754916 -51.485812 8.868394 8.667015 -84.811968 -0.000003 0.000001 -0.000002 0.000002 -0.000000 -0.000002 15.302933 20.568544 -4.925035 -28.808331 -11.687210 -3.682308 -45.727854 43.802177 34.969216 -6.236515 -12.921148 -11.831681 -1.525705 -5.490528 13.054249 1.517209 -22.702494 -8.022599 -0.000000 -0.000001 -0.000002 1.268141 4.826740 -8.222279 0.524607 1.165254 0.150710 -0.000002 0.000000 0.000001 0.868223 -5.213090 -11.361333 1.477422 -3.598028 19.974680 -0.000001 -0.000001 -0.000002 1.809755 -11.815188 -9.204598 1.789871 -3.018417 21.069322 -0.000001 -0.000001 0.000004 2.625010 -21.404746 -3.858351 5.348394 -1.270571 0.567670 -0.000003 -0.000001 0.000000 0.000000 -0.000001 0.000001 0.000003 0.000000 0.000001 0.000003 0.000000 0.000001 0.000003 0.000000 0.000001 0.000003 0.000000 0.000001 0.000003 0.000000 0.000001 0.000002 -0.000000 0.000000 0.000002 0.000002 -0.000001 0.000002 0.000002 -0.000001 0.000003 0.000001 -0.000000 -0.000000 0.000001 0.000000 
-0.710754 110.648376 4.232755 4.441854 -38.311521 4.309236 -0.000000 0.000001 -0.000000 -74.066544 -15.507637 32.028314 66.282218 3.066356 8.332496 1.199674 -0.901072 1.615415 -0.000001 -0.000001 0.000001 -0.000000 0.000001 -0.000001 0.000000 -0.000000 0.000001 -112.556006 -42.465195 -0.005526 124.282341 20.253575 -13.343236 9.847391 -1.282849 23.947755 0.000000 -0.000000 -0.000004 0.000000 -0.000000 -0.000001 -0.000000 -0.000001 0.000001 30.123808 -3.669345 -10.147142 12.798048 1.087548 -3.033111 12.745778 1.050440 -3.241318 -8.938874 20.977121 -13.011275 -25.364826 13.878971 5.705349 0.000001 0.000000 -0.000000 0.000001 0.000000 -0.000000 0.000001 0.000000 -0.000000 0.000001 0.000000 -0.000000 0.000001 0.000000 -0.000000 0.000001 0.000000 -0.000000 0.000001 0.000000 -0.000000 0.000001 0.000000 -0.000000 0.000001 0.000000 -0.000000 0.000001 0.000000 -0.000000 0.000001 0.000000 -0.000000 0.000001 0.000000 -0.000000 0.000001 0.000000 -0.000000 0.000001 0.000000 -0.000000 0.000001 0.000000 -0.000000 0.000001 0.000000 -0.000000 0.000001 0.000000 -0.000000 0.000001 0.000000 -0.000000 0.000001 0.000000 -0.000000 10.133420 -9.721062 -0.028976 -63.361384 10.080291 4.356418 46.550014 -25.690310 31.376724 -8.810554 6.229368 9.041442 40.109944 -15.297148 -0.360407 5.639819 28.097619 11.338683 0.000000 0.000001 -0.000001 6.882245 2.840032 -61.140425 8.247907 7.639956 -89.897966 0.000005 -0.000002 0.000002 -2.345505 4.688829 -62.655333 8.754111 9.897090 -87.051096 -0.000001 0.000002 0.000001 -9.042518 10.045659 -60.766315 8.524101 9.508843 -66.893097 0.000003 -0.000001 0.000002 -17.946957 14.754918 -51.485816 8.868390 8.667019 -84.811975 -0.000005 -0.000002 0.000002 -0.000003 0.000001 -0.000002 15.618566 20.231679 -5.707897 -29.640125 -12.140668 -3.854860 -46.313792 44.391807 35.807834 -5.972654 -16.119270 -13.160357 -1.525699 -5.490528 13.054249 1.517207 -22.702494 -8.022595 0.000002 -0.000000 0.000000 1.268117 4.834600 -8.283329 0.527604 1.173654 0.089709 -0.000002 0.000001 0.000002 0.867564 -5.201539 -11.440755 1.470010 -3.577901 19.826709 -0.000000 0.000001 -0.000003 1.800662 -11.816952 -9.274044 1.782251 -3.002212 20.952821 0.000003 -0.000001 0.000002 2.621630 -21.397326 -3.920233 5.338779 -1.252264 0.329965 -0.000002 -0.000002 0.000002 -0.000001 -0.000002 -0.000003 0.000001 0.000000 -0.000001 0.000001 0.000000 -0.000001 0.000001 0.000000 -0.000001 0.000001 0.000000 -0.000001 0.000001 0.000000 -0.000001 0.000001 0.000000 -0.000001 0.000001 -0.000001 0.000000 0.000001 -0.000001 0.000000 0.000000 -0.000000 0.000003 -0.000000 0.000001 -0.000000 
-0.675668 110.649261 4.233634 4.380462 -38.100305 4.186383 -0.000000 -0.000001 0.000000 -74.106296 -15.585889 32.040745 66.321690 2.913365 8.244818 1.415718 -0.914942 1.775930 0.000000 -0.000000 -0.000001 0.000000 0.000000 -0.000002 -0.000000 -0.000000 0.000001 -112.785807 -42.449670 -0.024118 124.430078 20.109725 -13.321498 10.018822 -1.288130 24.125248 0.000000 -0.000000 -0.000002 -0.000000 0.000000 -0.000001 0.000001 -0.000003 -0.000001 30.129102 -3.672945 -10.135169 12.814278 1.087506 -3.033101 12.762083 1.050437 -3.241336 -8.900556 20.965568 -12.984468 -25.327585 13.653080 5.711544 -0.000001 -0.000000 0.000001 -0.000001 -0.000000 0.000001 -0.000001 -0.000000 0.000001 -0.000001 -0.000000 0.000001 -0.000001 -0.000000 0.000001 -0.000001 -0.000000 0.000001 -0.000001 -0.000000 0.000001 -0.000001 -0.000000 0.000001 -0.000001 -0.000000 0.000001 -0.000001 -0.000000 0.000001 -0.000001 -0.000000 0.000001 -0.000001 -0.000000 0.000001 -0.000001 -0.000000 0.000001 -0.000001 -0.000000 0.000001 -0.000001 -0.000000 0.000001 -0.000001 -0.000000 0.000001 -0.000001 -0.000000 0.000001 -0.000001 -0.000000 0.000001 -0.000001 -0.000000 0.000001 10.281096 -9.782284 0.722440 -63.758614 8.941667 4.845707 46.500280 -25.586467 31.254362 -8.574800 5.831152 8.725813 40.109941 -15.297143 -0.360402 5.639817 28.097619 11.338682 -0.000000 0.000001 0.000000 6.882237 2.840033 -61.140418 8.247907 7.639953 -89.897966 0.000007 0.000000 0.000001 -2.345510 4.688824 -62.655327 8.754112 9.897090 -87.051096 0.000003 0.000000 0.000001 -9.042524 10.045658 -60.766315 8.524106 9.508840 -66.893097 0.000004 -0.000001 0.000000 -17.946966 14.754916 -51.485816 8.868388 8.667021 -84.811968 0.000002 0.000000 0.000001 0.000001 -0.000002 0.000002 15.932601 19.880777 -6.500311 -30.491027 -12.602417 -4.047629 -46.939655 44.997105 36.694887 -5.836489 -19.436207 -14.502616 -1.525697 -5.490528 13.054253 1.517204 -22.702495 -8.022596 0.000001 0.000001 -0.000000 1.272693 4.847373 -8.379336 0.532375 1.186888 0.002690 -0.000002 0.000000 0.000005 0.866604 -5.183223 -11.565170 1.458485 -3.546340 19.594628 -0.000001 0.000000 -0.000001 1.786132 -11.819731 -9.382948 1.770356 -2.976799 20.770146 0.000001 -0.000002 0.000003 2.616282 -21.385720 -4.017284 5.323948 -1.223552 0.000073 -0.000006 -0.000003 0.000001 -0.000001 -0.000001 -0.000001 0.000002 0.000000 0.000003 0.000002 0.000000 0.000003 0.000002 0.000000 0.000003 0.000002 0.000000 0.000003 0.000002 0.000000 0.000003 0.000002 -0.000000 0.000001 0.000001 0.000001 0.000001 0.000001 0.000001 0.000001 0.000001 -0.000002 -0.000000 -0.000000 -0.000001 0.000000 
